inDegrees=no
num_controls=7
num_derivatives=13
num_iterations=208
num_multipliers=7
num_parameters=0
num_slacks=7
num_states=26
objective=5.553983
objective_accelerations=0.300453
objective_balance=0.016322
objective_effort=0.335036
objective_height=4.786849
objective_ligament=0.115323
solver_duration=1734.959056
status=Solve_Succeeded
success=true
DataType=double
version=3
OpenSimVersion=4.4-2022-07-23-0e9fedc
endheader
time	/jointset/ground_pelvis/pelvis_tilt/value	/jointset/ground_pelvis/pelvis_tx/value	/jointset/ground_pelvis/pelvis_ty/value	/jointset/hip_r/hip_flexion_r/value	/jointset/hip_r/hip_adduction_r/value	/jointset/hip_r/hip_rotation_r/value	/jointset/back/lumbar_extension/value	/jointset/patellofemoral_r/patellar_flexion_r/value	/jointset/knee_r/knee_flexion_r/value	/jointset/knee_r/knee_adduction_r/value	/jointset/knee_r/knee_rotation_r/value	/jointset/ankle_r/ankle_angle_r/value	/jointset/subtalar_r/subtalar_angle_r/value	/jointset/ground_pelvis/pelvis_tilt/speed	/jointset/ground_pelvis/pelvis_tx/speed	/jointset/ground_pelvis/pelvis_ty/speed	/jointset/hip_r/hip_flexion_r/speed	/jointset/hip_r/hip_adduction_r/speed	/jointset/hip_r/hip_rotation_r/speed	/jointset/back/lumbar_extension/speed	/jointset/patellofemoral_r/patellar_flexion_r/speed	/jointset/knee_r/knee_flexion_r/speed	/jointset/knee_r/knee_adduction_r/speed	/jointset/knee_r/knee_rotation_r/speed	/jointset/ankle_r/ankle_angle_r/speed	/jointset/subtalar_r/subtalar_angle_r/speed	/forceset/tau_hip_flexion_r	/forceset/tau_hip_adduction_r	/forceset/tau_hip_rotation_r	/forceset/tau_knee_flexion_r	/forceset/tau_ankle_angle_r	/forceset/tau_subtalar_angle_r	/forceset/tau_lumbar_extension	lambda_cid13_p0	lambda_cid14_p0	lambda_cid14_p1	lambda_cid14_p2	lambda_cid14_p3	lambda_cid14_p4	lambda_cid14_p5	/jointset/ground_pelvis/pelvis_tilt/accel	/jointset/ground_pelvis/pelvis_tx/accel	/jointset/ground_pelvis/pelvis_ty/accel	/jointset/hip_r/hip_flexion_r/accel	/jointset/hip_r/hip_adduction_r/accel	/jointset/hip_r/hip_rotation_r/accel	/jointset/back/lumbar_extension/accel	/jointset/patellofemoral_r/patellar_flexion_r/accel	/jointset/knee_r/knee_flexion_r/accel	/jointset/knee_r/knee_adduction_r/accel	/jointset/knee_r/knee_rotation_r/accel	/jointset/ankle_r/ankle_angle_r/accel	/jointset/subtalar_r/subtalar_angle_r/accel	gamma_cid13_p0	gamma_cid14_p0	gamma_cid14_p1	gamma_cid14_p2	gamma_cid14_p3	gamma_cid14_p4	gamma_cid14_p5
0.5	-0.1311144172554581	0.02960306225207045	0.8588553193896014	0.7237451534471968	-0.2218632620384245	-0.1505440678978187	-0.6389446171793041	0.6964957214611079	0.6964957214611947	0.01262471884374773	0.1745327373398904	0.1789864661116979	0.09842504914817668	-0.3692714327575332	-0.212167723760778	-0.2759767978959731	1.396222791570386	-0.01458759330396386	0.2212602898758012	-0.7418840042762238	1.216781275362399	1.216781275362584	-0.2091792186209942	2.587195418602517e-07	0.2460185186610093	0.05840980720119554	-0.19270575703551	-0.003964530838028461	0.01602263928733973	-0.2199344809957549	0.009360964046354189	-0.002086069765921718	0.237992331193003	-21.2875587425904	-40.31501440653501	-4.023657277415603	-3.438372118787479	-2.717184500686785	-654.9059079618567	66.81573826979476	0.1255069045560973	0.4748255867739455	-0.1423240007678772	-1.123397309579546	-0.06048780361039789	-0.2181729874790807	1.648215665120002	-1.036568861829031	-1.036568861829033	0.5171784858289786	-0.0226511687574832	-0.1488408597109543	-0.1103242811097161	-1.831784710337318e-08	4.368475639221152e-08	5.398766099631706e-07	2.936942915292811e-07	-7.864806684555251e-08	1.876542135748291e-09	1.992601509534126e-07
0.51	-0.1348003039028194	0.02750533141337027	0.8560890331879021	0.7376492890104296	-0.2220121186078024	-0.1483438292945501	-0.6462801409784873	0.708609927397204	0.7086099273971875	0.01055824855325115	0.1745327085024253	0.1814388240109022	0.0990035734749842	-0.3678488656869606	-0.2073580139103516	-0.2772197406793916	1.384412435584857	-0.01517897653496407	0.2187725361824439	-0.7251289654287476	1.205894938789187	1.205894938789484	-0.2041005566856243	-4.985129341554285e-06	0.2444193338568757	0.05728907780128468	-0.1986376227091799	-0.00334396851165702	0.01624801658365893	-0.2220536436522036	0.008651363768131925	-0.001558274865930421	0.2433207755079673	-20.73023465758651	-40.69866385047924	-3.916609238405386	-3.392616438880737	-2.753174506216346	-657.9490457940957	67.05845641533047	0.1591910858860557	0.487092830811335	-0.1061743444057709	-1.238631680167945	-0.05766205570283003	-0.2663164468912078	1.702916514311831	-1.139408397346785	-1.139408397329981	0.505444462774674	0.01074926583067652	-0.1705313601362971	-0.113727178427286	-1.792303576393072e-08	4.139141270232746e-08	5.163546687740182e-07	2.718459796477227e-07	-7.544287727670847e-08	9.161294270855728e-10	1.968520166360915e-07
0.52	-0.1384702529839605	0.02545630750250115	0.8533121385729132	0.7514295656263814	-0.2221667287040579	-0.1461689162055426	-0.6534453606852461	0.7206103214991156	0.7206103214989916	0.008543011765191278	0.1745326692782248	0.1838741752481909	0.09957073452599398	-0.3660839195132532	-0.2024263381945653	-0.278098480553899	1.371451002114191	-0.01573829868028766	0.2161951870240005	-0.7078231857912515	1.194018908524797	1.194018908525206	-0.1989325181349096	-1.818626846615137e-06	0.2426171862778735	0.05613715204155356	-0.2045694883828477	-0.002723406185282236	0.01647339387995353	-0.2241728063086542	0.007941763489910473	-0.001030479965933356	0.248649219822933	-20.17339822430536	-41.08516401355865	-3.809475040716609	-3.347542896204275	-2.800167471429234	-661.0450129790678	67.30273858306907	0.1939827251830629	0.4992187598459686	-0.06948341898563359	-1.353612806607161	-0.05407558647508256	-0.2360920804963257	1.758363823123988	-1.234507600064568	-1.234507600064584	0.5350538088979487	-0.02096909848180886	-0.1894334146846077	-0.1165635530737505	-1.758627835213468e-08	3.930716071871513e-08	4.849375107704852e-07	2.459459928091434e-07	-7.266230176434196e-08	4.706317196322724e-09	1.902450924071187e-07
0.53	-0.1421208896672211	0.02345716001614163	0.8505282774320807	0.7650746288124898	-0.2223268039708156	-0.1440200710322824	-0.6604348796023418	0.7324871415722848	0.7324871415722397	0.006579985034429576	0.174532624071474	0.1862905065144485	0.1001261781352461	-0.3639868983465454	-0.197387367100513	-0.2786118986159605	1.357377481472165	-0.01627164348906004	0.2135567957794259	-0.6900046524559375	1.181187616012942	1.181187616013284	-0.1936631631624512	-3.525901755568831e-06	0.2406163283010642	0.05494632838915749	-0.2103053283208394	-0.002155259669213171	0.01666044847967798	-0.226371646352096	0.007294643738564104	-0.0005106956672097195	0.2537808068220843	-19.61728637040194	-41.45001363069874	-3.7026033261326	-3.301771622641444	-2.821026514498173	-664.0832832925776	67.55579216797655	0.2260434674531324	0.5085908404754936	-0.03299231087570246	-1.461839791208866	-0.05212199980531942	-0.2802790973507786	1.8049898645261	-1.331060109198057	-1.331060109207992	0.524405475000298	0.01082781944004453	-0.2103355723746498	-0.1210270583248089	-1.912084087764374e-08	3.15530902970913e-08	4.297122086739005e-07	1.797248262941685e-07	-6.453843910330096e-08	4.429934072311053e-09	1.755601020278036e-07
0.54	-0.1457488598078075	0.02150887315198069	0.8477411378484155	0.7785734331725361	-0.2224920442999997	-0.1418981230616577	-0.6672439348309267	0.7442309247138374	0.744230924713884	0.004669957680092445	0.1745326816642654	0.188685844484299	0.1006695764505743	-0.3615506109782906	-0.1922542137548492	-0.2787541691204061	1.342199236901796	-0.01677131116691196	0.2108157464983385	-0.6717304480889795	1.167411522203003	1.167411522203279	-0.1883326428467727	1.874128075384145e-05	0.2384185269964331	0.05372809325667004	-0.2160411682588344	-0.001587113153155443	0.016847503079522	-0.2285704863955318	0.006647523987213276	9.08863149233004e-06	0.2589123938212346	-19.06218251084835	-41.81860519370407	-3.595372750429686	-3.257215715323932	-2.853336622078374	-667.1885392589433	67.81511986987947	0.261835965492437	0.5180552101683042	0.004746092537571814	-1.574557592275841	-0.04734016029098451	-0.2566236877989089	1.849498029452796	-1.423467859681302	-1.423467859681316	0.5472868775419474	-0.01617420699813904	-0.2288220802489059	-0.1220458490920069	-2.272579992953292e-08	1.752602926319939e-08	3.481459811977689e-07	6.889299290318086e-08	-5.050285449053491e-08	-3.456338697631987e-10	1.51937676758748e-07
0.55	-0.1493508083471265	0.01961233767917552	0.8449544218069895	0.791915078134014	-0.2226622400402372	-0.1398034528119715	-0.6738680734516593	0.7558324101331123	0.7558324101331406	0.00281411282577831	0.1745327382237489	0.1910582123567493	0.1012004668079553	-0.3587832687058645	-0.1870419917657832	-0.2785271790079615	1.325955690077357	-0.01726255458854691	0.2081034026747281	-0.6530351203297105	1.152738458652695	1.152738458652708	-0.1828282545067399	-3.520609970554725e-06	0.2360237268429554	0.05244523842798827	-0.2215923238357187	-0.001023599339464922	0.01700120708856752	-0.2307497668487193	0.005964671671373791	0.0004980925452638622	0.2638434838297807	-18.50846035622595	-42.1951371717737	-3.503297739741547	-3.209789826470478	-2.830942492261605	-670.1777941391357	68.03870265311001	0.2925576167283754	0.5244304800480701	0.04095390404064801	-1.675362454641406	-0.04919560242118676	-0.2808010252017231	1.888873508331167	-1.511286114287816	-1.511286114327209	0.5532725550891929	0.005336298892372917	-0.2495153990138599	-0.1320676803096363	-2.45625492862421e-08	8.600460263371207e-09	2.879673455105104e-07	-2.7984391483486e-09	-4.107344845962128e-08	-1.371524587611394e-09	1.327035158832692e-07
